:SAMPLES-PER-SECOND 30
:FULLY-SPECIFIED
:DEGREES
235
root  -5.006288919 39.21977666 6.89666703 39.875 -71.44599915 -33.38800049
lowerback  11.12269974 6.041619778 -4.826029778
upperback  4.676660061 6.993750095 -6.264140129
thorax  -1.076220036 3.345829964 -4.678579807
lowerneck  4.36179018 7.000720024 -4.295199871
upperneck  5.659989834 8.689629555 12.86480045
head  0.207306996 4.24601984 4.872879982
lclavicle  0 -9.442270133e-015 7.951389973e-016
lhumerus  -48.74530029 0.8976910114 83.57959747
lradius  2.315276979e-031 -2.666146385e-031 130.970993
lwrist  -7.062250077e-031 5.296687558e-031 48.34130096
lhand  -1.496451383e-031 -27.76390076 20.11240005
lfingers  90 7.125020027 -90
lthumb  89.89689403 5.08795885 91.16245106
rclavicle  0 -9.442270133e-015 7.951389973e-016
rhumerus  -25.69339943 5.247829914 -81.26360321
rradius  2.864851796e-032 3.519484377e-031 85.3463974
rwrist  1.412450015e-030 7.062250077e-031 -52.64459991
rhand  -7.920061211e-032 -33.2840004 9.303460121
rfingers  -90 -7.125020027 -90
rthumb  -92.93752616 -24.25625642 -97.11982154
rfemur  -10.95020008 9.302650452 18.94949913
rtibia  -0 0 47.62350082
rfoot  -0 -15.24890041 -10.46049976
rtoes  5.373923086 19.29304026 -105.8922705
lfemur  -41.21730042 2.013279915 2.592380047
ltibia  -0 0 62.64450073
lfoot  4.46009743e-032 -8.253160477 3.236479998
ltoes  -4.250644065 -19.5611806 -102.515957
236
root  -4.956111007 39.04133294 6.768488696 43.57199097 -72.46499634 -38.10299683
lowerback  11.80389977 6.039740086 -4.086339951
upperback  4.70510006 7.020440102 -5.943860054
thorax  -1.368399978 3.365890026 -4.823090076
lowerneck  4.553649902 7.276889801 -4.326220036
upperneck  5.70510006 9.058850288 12.42720032
head  0.1762119979 4.421420097 4.698339939
lclavicle  0 -9.442270133e-015 7.951389973e-016
lhumerus  -48.39690018 1.349269986 83.01339722
lradius  2.284741206e-031 -2.692359868e-031 130.3179932
lwrist  -1.412450015e-030 5.296687558e-031 48.96300125
lhand  -1.496451383e-031 -27.76390076 20.11240005
lfingers  90 7.125020027 -90
lthumb  89.89689403 5.08795885 91.16245106
rclavicle  0 -9.442270133e-015 7.951389973e-016
rhumerus  -25.96999931 5.351359844 -80.72599792
rradius  2.574697669e-032 3.521725906e-031 85.81860352
rwrist  7.062250077e-031 3.531125038e-031 -51.57830048
rhand  -7.920061211e-032 -33.2840004 9.303460121
rfingers  -90 -7.125020027 -90
rthumb  -92.93752616 -24.25625642 -97.11982154
rfemur  -10.29450035 10.62240028 19.78680038
rtibia  -0 0 47.96229935
rfoot  -0 -15.10849953 -12.32240009
rtoes  5.373923086 19.29304026 -105.8922705
lfemur  -39.21509933 2.404200077 3.064039946
ltibia  -0 0 62.3810997
lfoot  4.498829485e-032 -11.15030003 5.916820049
ltoes  -4.250644065 -19.5611806 -102.515957
237
root  -4.937866541 38.91466696 6.640399723 45.17300415 -73.58999634 -39.51000977
lowerback  11.34529972 5.809559822 -4.342130184
upperback  4.55325985 6.727779865 -5.935679913
thorax  -1.326390028 3.219759941 -4.596439838
lowerneck  4.809979916 7.632969856 -4.328619957
upperneck  5.749010086 9.530630112 12.09589958
head  0.1217089966 4.645269871 4.549769878
lclavicle  0 -9.442270133e-015 7.951389973e-016
lhumerus  -47.78179932 1.94588995 82.02200317
lradius  2.256327795e-031 -2.716215919e-031 129.7160034
lwrist  0 5.296687558e-031 49.73009872
lhand  -1.496451383e-031 -27.76390076 20.11240005
lfingers  90 7.125020027 -90
lthumb  89.89689403 5.08795885 91.16245106
rclavicle  0 -9.442270133e-015 7.951389973e-016
rhumerus  -26.01779938 5.461339951 -80.36370087
rradius  2.257805878e-032 3.523899426e-031 86.33399963
rwrist  1.412450015e-030 7.062250077e-031 -50.72230148
rhand  -7.920061211e-032 -33.2840004 9.303460121
rfingers  -90 -7.125020027 -90
rthumb  -92.93752616 -24.25625642 -97.11982154
rfemur  -10.58590031 11.3760004 19.3640995
rtibia  -0 0 48.09009933
rfoot  -0 -16.68219948 -11.78460026
rtoes  5.373923086 19.29304026 -105.8922705
lfemur  -38.3927002 2.170730114 2.652930021
ltibia  -0 0 61.87720108
lfoot  -0 -13.26500034 7.336810112
ltoes  -4.250644065 -19.5611806 -102.515957
238
root  -4.93400003 38.82377805 6.497889241 45.48599243 -74.60800171 -39.2460022
lowerback  10.53419971 5.468560219 -4.842030048
upperback  4.372879982 6.29445982 -6.058790207
thorax  -1.134780049 3.002079964 -4.325319767
lowerneck  5.175749779 7.961090088 -4.380740166
upperneck  5.721690178 9.961440086 11.96730042
head  0.01530539989 4.842510223 4.477009773
lclavicle  0 -9.442270133e-015 7.951389973e-016
lhumerus  -46.79019928 2.376539946 80.85070038
lradius  2.21933417e-031 -2.746525055e-031 128.9400024
lwrist  -7.062250077e-031 5.296687558e-031 50.12990189
lhand  -1.496451383e-031 -27.76390076 20.11240005
lfingers  90 7.125020027 -90
lthumb  89.89689403 5.08795885 91.16245106
rclavicle  0 -9.442270133e-015 7.951389973e-016
rhumerus  -25.87800026 5.265029907 -80.04869843
rradius  1.902204138e-032 3.525997764e-031 86.91200256
rwrist  7.062250077e-031 5.296687558e-031 -51.25299835
rhand  -7.920061211e-032 -33.2840004 9.303460121
rfingers  -90 -7.125020027 -90
rthumb  -92.93752616 -24.25625642 -97.11982154
rfemur  -10.9968996 11.88430023 18.60810089
rtibia  -0 0 47.94419861
rfoot  -0 -18.40060043 -10.69919968
rtoes  5.373923086 19.29304026 -105.8922705
lfemur  -38.09429932 1.560009956 2.126349926
ltibia  -0 0 61.31470108
lfoot  -0 -14.68029976 8.672679901
ltoes  -4.250644065 -19.5611806 -102.515957
